<?xml version="1.0" encoding="utf-8"?>
<!-- Generator: Adobe Illustrator 22.1.0, SVG Export Plug-In . SVG Version: 6.00 Build 0)  -->
<svg version="1.1" id="Layer_1" xmlns="http://www.w3.org/2000/svg" xmlns:xlink="http://www.w3.org/1999/xlink" x="0px" y="0px"
	 viewBox="0 0 300 300" style="enable-background:new 0 0 300 300;" xml:space="preserve">
<style type="text/css">
	.st0{opacity:0.97;}
	.st1{fill:#AA1818;}
	.st2{fill:#2F2F2F;}
	.st3{fill:#333333;stroke:#333333;stroke-width:3;stroke-miterlimit:10;}
	.st4{font-family:'VinerHandITC';}
	.st5{font-size:72px;}
	.st6{letter-spacing:14;}
</style>
<g id="Untitled_1_" class="st0">
	<path class="st1" d="M143.8,110.9c1.3,1,3.1,1,5,0.3c1.5-0.6,2.9-0.3,3.4,0.9l2,4.4c0.7,1.5,0,3.9-1.7,5.6c-2.8,2.9-5.4,5-7.5,5.7
		c-1,0.4-1.9,1.2-2.7,2.2L67,226.7l0,0l-11.7,28.9c-1.5,3.7,1.2,5.8,4.4,3.4l24.4-17.8c0.6-0.4,1.1-0.9,1.5-1.5l74.9-96.2
		c0.8-1,1.3-2.1,1.4-3.1c0.2-2.1,1.5-5.1,3.6-8.4c1.3-2.1,3.4-3.3,5-3l4.6,0.9c1.3,0.2,1.8,1.5,1.7,3.1c-0.2,2,0.3,3.7,1.5,4.6
		c2.5,1.9,7,0.3,10.2-3.8c3.1-4,3.7-8.9,1.2-10.9c-1.3-1-3-1-4.9-0.3c-1.5,0.6-2.9,0.3-3.4-0.8l-3.7-8c-0.6-1.3-0.1-3.3,1.2-5.1
		l18.4-23.7c0.7-0.9,1.6-1.7,2.6-2.1c3.4-1.6,6.9-4.8,9.2-10.7c0.3-0.7,0.4-1.3,0.4-1.9c-0.4-8.9-9.3-7.7-14.7-0.7
		c-1.7,2.2-2.8,4.6-3.2,6.9c-0.2,1-0.7,2.1-1.4,3l-18.2,23.3c-1.3,1.7-3.2,2.7-4.6,2.4l-8.9-1.7c-1.3-0.2-1.9-1.5-1.7-3.1
		c0.2-2-0.3-3.7-1.5-4.7c-2.5-1.9-7.2-0.3-10.4,3.9C141.8,103.8,141.2,108.8,143.8,110.9z M125.6,161.8L125.6,161.8
		c2.4,1.6,0.9,5.4-2,4.9h0c-2.4-0.4-3.1-3.6-1-4.9h0C123.5,161.1,124.7,161.2,125.6,161.8z M13,146.9c0.2-1.2,1.3-1.9,2.4-1.7
		c1.2,0.2,1.9,1.3,1.7,2.4c-0.2,1.2-1.3,1.9-2.4,1.7S12.8,148,13,146.9z"/>
	<path class="st2" d="M257.3,58l0.7-2.6c-2.3-0.6-4.4,0.3-4.8,1.9c-0.2,0.9,0,1.8,0.7,2.5l-10.4,5.7c-4.7,2.6-11.9,0.6-14.7-3.9
		l-11.3-18.7c1.1-0.3,1.9-1,2.2-2c0.4-1.7-1.1-3.5-3.2-4c-2.3-0.6-4.4,0.3-4.8,1.9c-0.3,0.9,0.1,2,0.9,2.8l-19.1,10.6
		c-4.7,2.6-11.9,0.6-14.7-3.9l-6.2-10.1c0.9-0.4,1.6-1,1.9-1.8c0.4-1.7-1.1-3.5-3.2-4l-0.7,2.5l-0.9,3.5l-3.7,14.1l-0.2,0.8l-0.8,3
		l86,22.8l0.8-2.9l0.2-0.8L257.3,58L257.3,58z"/>
	<path class="st2" d="M161.1,70.6l86.2,22.9l3.3-12.4l-86.2-22.9L161.1,70.6z M245.4,77.9c0.3,0.1,0.5,0.7,0.3,1.4
		c-0.2,0.7-0.6,1.2-0.9,1.1c-0.3-0.1-0.5-0.7-0.3-1.4C244.6,78.3,245,77.8,245.4,77.9z M222.5,77.6c1.6,0.4,2.7,2,2.3,3.4
		s-2,2.2-3.7,1.8c-1.6-0.4-2.7-2-2.3-3.4C219.2,78,220.9,77.2,222.5,77.6z M208.3,68c1.6,0.4,2.9,1.4,2.7,2s-1.7,0.9-3.3,0.4
		s-2.9-1.4-2.7-2C205.1,67.8,206.6,67.5,208.3,68z M191.2,69.3c1.6,0.4,2.7,2,2.3,3.4s-2,2.2-3.7,1.8c-1.6-0.4-2.7-2-2.3-3.4
		C187.9,69.7,189.6,68.9,191.2,69.3z M175.6,65.2c1.6,0.4,2.7,2,2.3,3.4c-0.4,1.4-2,2.2-3.7,1.8c-1.6-0.4-2.7-2-2.3-3.4
		C172.3,65.5,174,64.7,175.6,65.2z"/>
</g>
<text transform="matrix(0.9848 -0.1736 0.1736 0.9848 20.1156 207.1233)" class="st3 st4 st5">Develops</text>
<text transform="matrix(0.9848 -0.1736 0.1736 0.9848 29.4114 142.176)" class="st3 st4 st5 st6">SS</text>
</svg>
